{
    "asset" : {
        "generator" : "Khronos glTF Blender I/O v1.7.33",
        "version" : "2.0"
    },
    "scene" : 0,
    "scenes" : [
        {
            "name" : "Scene",
            "nodes" : [
                0,
                1,
                2,
                3
            ]
        }
    ],
    "nodes" : [
        {
            "mesh" : 0,
            "name" : "Cube"
        },
        {
            "mesh" : 1,
            "name" : "Sphere",
            "translation" : [
                0.5390920042991638,
                0.16598214209079742,
                0
            ]
        },
        {
            "mesh" : 2,
            "name" : "Sphere.001",
            "rotation" : [
                0,
                0,
                -0.18321505188941956,
                0.9830728769302368
            ],
            "translation" : [
                0.5390920042991638,
                0.16598214209079742,
                0
            ]
        },
        {
            "mesh" : 3,
            "name" : "Cube.001",
            "rotation" : [
                0,
                0.7071068286895752,
                0,
                0.7071068286895752
            ],
            "scale" : [
                1.5490572452545166,
                1.7555612325668335,
                1.5490572452545166
            ],
            "translation" : [
                0.5911192893981934,
                0.037444066256284714,
                0
            ]
        }
    ],
    "materials" : [
        {
            "doubleSided" : true,
            "name" : "Material",
            "pbrMetallicRoughness" : {
                "baseColorFactor" : [
                    0.7782287001609802,
                    0.6913695335388184,
                    0.5079545378684998,
                    1
                ],
                "metallicFactor" : 0,
                "roughnessFactor" : 0.4956521689891815
            }
        },
        {
            "doubleSided" : true,
            "name" : "Material.001",
            "pbrMetallicRoughness" : {
                "baseColorFactor" : [
                    0.588171660900116,
                    0.588171660900116,
                    0.588171660900116,
                    1
                ],
                "metallicFactor" : 0,
                "roughnessFactor" : 0.47826087474823
            }
        }
    ],
    "meshes" : [
        {
            "name" : "Cube.001",
            "primitives" : [
                {
                    "attributes" : {
                        "POSITION" : 0,
                        "NORMAL" : 1,
                        "TEXCOORD_0" : 2
                    },
                    "indices" : 3,
                    "material" : 0
                }
            ]
        },
        {
            "name" : "Sphere.001",
            "primitives" : [
                {
                    "attributes" : {
                        "POSITION" : 4,
                        "NORMAL" : 5,
                        "TEXCOORD_0" : 6
                    },
                    "indices" : 7,
                    "material" : 1
                }
            ]
        },
        {
            "name" : "Sphere.002",
            "primitives" : [
                {
                    "attributes" : {
                        "POSITION" : 8,
                        "NORMAL" : 9,
                        "TEXCOORD_0" : 10
                    },
                    "indices" : 11,
                    "material" : 0
                }
            ]
        },
        {
            "name" : "Cube.002",
            "primitives" : [
                {
                    "attributes" : {
                        "POSITION" : 12,
                        "NORMAL" : 13,
                        "TEXCOORD_0" : 14
                    },
                    "indices" : 15,
                    "material" : 0
                }
            ]
        }
    ],
    "accessors" : [
        {
            "bufferView" : 0,
            "componentType" : 5126,
            "count" : 27,
            "max" : [
                0.6920000910758972,
                1.0311832427978516,
                0.7847310900688171
            ],
            "min" : [
                -0.6920000910758972,
                -1.0311832427978516,
                -0.7847310900688171
            ],
            "type" : "VEC3"
        },
        {
            "bufferView" : 1,
            "componentType" : 5126,
            "count" : 27,
            "type" : "VEC3"
        },
        {
            "bufferView" : 2,
            "componentType" : 5126,
            "count" : 27,
            "type" : "VEC2"
        },
        {
            "bufferView" : 3,
            "componentType" : 5123,
            "count" : 96,
            "type" : "SCALAR"
        },
        {
            "bufferView" : 4,
            "componentType" : 5126,
            "count" : 559,
            "max" : [
                0.13351128995418549,
                0.13310593366622925,
                0.43532735109329224
            ],
            "min" : [
                -0.13300566375255585,
                -0.13341116905212402,
                0.16881053149700165
            ],
            "type" : "VEC3"
        },
        {
            "bufferView" : 5,
            "componentType" : 5126,
            "count" : 559,
            "type" : "VEC3"
        },
        {
            "bufferView" : 6,
            "componentType" : 5126,
            "count" : 559,
            "type" : "VEC2"
        },
        {
            "bufferView" : 7,
            "componentType" : 5123,
            "count" : 2880,
            "type" : "SCALAR"
        },
        {
            "bufferView" : 8,
            "componentType" : 5126,
            "count" : 264,
            "max" : [
                0.095158651471138,
                0.1440919041633606,
                0.44472864270210266
            ],
            "min" : [
                -0.14365361630916595,
                -0.10368581116199493,
                0.15940922498703003
            ],
            "type" : "VEC3"
        },
        {
            "bufferView" : 9,
            "componentType" : 5126,
            "count" : 264,
            "type" : "VEC3"
        },
        {
            "bufferView" : 10,
            "componentType" : 5126,
            "count" : 264,
            "type" : "VEC2"
        },
        {
            "bufferView" : 11,
            "componentType" : 5123,
            "count" : 1344,
            "type" : "SCALAR"
        },
        {
            "bufferView" : 12,
            "componentType" : 5126,
            "count" : 19,
            "max" : [
                0.05666232109069824,
                0.1384444236755371,
                0.07346123456954956
            ],
            "min" : [
                -0.05666220188140869,
                -0.1384444236755371,
                -0.07346123456954956
            ],
            "type" : "VEC3"
        },
        {
            "bufferView" : 13,
            "componentType" : 5126,
            "count" : 19,
            "type" : "VEC3"
        },
        {
            "bufferView" : 14,
            "componentType" : 5126,
            "count" : 19,
            "type" : "VEC2"
        },
        {
            "bufferView" : 15,
            "componentType" : 5123,
            "count" : 60,
            "type" : "SCALAR"
        }
    ],
    "bufferViews" : [
        {
            "buffer" : 0,
            "byteLength" : 324,
            "byteOffset" : 0
        },
        {
            "buffer" : 0,
            "byteLength" : 324,
            "byteOffset" : 324
        },
        {
            "buffer" : 0,
            "byteLength" : 216,
            "byteOffset" : 648
        },
        {
            "buffer" : 0,
            "byteLength" : 192,
            "byteOffset" : 864
        },
        {
            "buffer" : 0,
            "byteLength" : 6708,
            "byteOffset" : 1056
        },
        {
            "buffer" : 0,
            "byteLength" : 6708,
            "byteOffset" : 7764
        },
        {
            "buffer" : 0,
            "byteLength" : 4472,
            "byteOffset" : 14472
        },
        {
            "buffer" : 0,
            "byteLength" : 5760,
            "byteOffset" : 18944
        },
        {
            "buffer" : 0,
            "byteLength" : 3168,
            "byteOffset" : 24704
        },
        {
            "buffer" : 0,
            "byteLength" : 3168,
            "byteOffset" : 27872
        },
        {
            "buffer" : 0,
            "byteLength" : 2112,
            "byteOffset" : 31040
        },
        {
            "buffer" : 0,
            "byteLength" : 2688,
            "byteOffset" : 33152
        },
        {
            "buffer" : 0,
            "byteLength" : 228,
            "byteOffset" : 35840
        },
        {
            "buffer" : 0,
            "byteLength" : 228,
            "byteOffset" : 36068
        },
        {
            "buffer" : 0,
            "byteLength" : 152,
            "byteOffset" : 36296
        },
        {
            "buffer" : 0,
            "byteLength" : 120,
            "byteOffset" : 36448
        }
    ],
    "buffers" : [
        {
            "byteLength" : 36568,
            "uri" : "data:application/octet-stream;base64,"
        }
    ]
}
